<mxfile host="app.diagrams.net" modified="2022-04-27T22:09:32.413Z" agent="5.0 (X11; Linux x86_64) AppleWebKit/537.36 (KHTML, like Gecko) Chrome/98.0.4758.132 YaBrowser/22.3.1.899 (beta) Yowser/2.5 Safari/537.36" etag="nM5ckjeZgxJWSHE_OXlH" version="16.5.6" type="github">
  <diagram id="uK7g2tgaJ2PW8TSzlvOo" name="Page-1">
    <mxGraphModel dx="1497" dy="839" grid="1" gridSize="10" guides="1" tooltips="1" connect="1" arrows="1" fold="1" page="1" pageScale="1" pageWidth="827" pageHeight="1169" math="0" shadow="0">
      <root>
        <mxCell id="0" />
        <mxCell id="1" parent="0" />
        <mxCell id="NEuYlTEZo3UmeoKoH1Xz-1" value="Object" style="html=1;" vertex="1" parent="1">
          <mxGeometry x="250" y="270" width="110" height="50" as="geometry" />
        </mxCell>
      </root>
    </mxGraphModel>
  </diagram>
</mxfile>
